<svg width="72" height="49" viewBox="0 0 72 49" fill="none" xmlns="http://www.w3.org/2000/svg">
<path d="M39.0568 48.289H45.6555C46.4766 48.289 47.0107 47.4283 46.6475 46.6927L24.5408 2.07641C24.1348 1.25538 22.9598 1.25843 22.5569 2.07946L0.69127 46.6958C0.331117 47.4313 0.865243 48.289 1.68322 48.289H27.5563C28.3773 48.289 28.9114 47.4252 28.5452 46.6897L25.6823 40.9638C25.4961 40.5884 25.1115 40.3534 24.6934 40.3534H14.2184C13.3913 40.3534 12.8571 39.4774 13.2356 38.7419L22.6667 20.4564C23.0818 19.6507 24.2386 19.6598 24.6415 20.4748L38.0648 47.6755C38.251 48.0509 38.6356 48.289 39.0568 48.289Z" fill="#15B75A"/>
<path d="M44.4958 24.4822H70.0789C70.6863 24.4822 71.1868 24.9736 71.1868 25.584C71.2051 35.9033 64.057 44.9835 55.743 47.9898C55.2302 48.176 54.6594 47.9532 54.4 47.4771L51.5737 42.2945C51.2716 41.7421 51.4944 41.0523 52.056 40.7746C55.2119 39.2119 57.7299 37.3836 59.3903 35.122C59.9305 34.3864 59.3994 33.3487 58.4868 33.3578L47.612 33.4799C47.1756 33.486 46.7757 33.2327 46.5957 32.8359L43.4916 26.051C43.1559 25.3154 43.69 24.4822 44.4958 24.4822Z" fill="#515151"/>
<path d="M35.8368 10.3019L32.8915 4.41122C32.6138 3.85878 32.8457 3.18425 33.4012 2.91872C47.6426 -3.94251 63.4222 1.78027 69.3037 14.9869C69.6302 15.7194 69.0961 16.5496 68.2934 16.5496H61.0659C60.6966 16.5496 60.3548 16.3634 60.1472 16.0582C54.5068 7.78079 46.8307 5.44895 37.369 10.7719C36.8196 11.0771 36.1207 10.8696 35.8368 10.3019Z" fill="#515151"/>
</svg>
