<svg width="133" height="90" viewBox="0 0 133 90" fill="none" xmlns="http://www.w3.org/2000/svg">
<path d="M72.3924 89.8036H84.6641C86.191 89.8036 87.1843 88.2029 86.5089 86.8349L45.3967 3.86137C44.6418 2.3345 42.4565 2.34017 41.7072 3.86705L1.0435 86.8406C0.373716 88.2086 1.36704 89.8036 2.88824 89.8036H51.0047C52.5316 89.8036 53.5249 88.1972 52.8438 86.8293L47.5196 76.1809C47.1734 75.4827 46.4582 75.0456 45.6805 75.0456H26.2001C24.6618 75.0456 23.6685 73.4166 24.3724 72.0486L41.9116 38.043C42.6835 36.5445 44.8348 36.5615 45.584 38.077L70.5476 88.6627C70.8939 89.3608 71.6091 89.8036 72.3924 89.8036Z" fill="#15B75A"/>
<path d="M82.5073 45.5298H130.085C131.214 45.5298 132.145 46.4436 132.145 47.5789C132.179 66.7698 118.886 83.6563 103.424 89.2473C102.47 89.5935 101.409 89.1792 100.926 88.2937L95.6702 78.6557C95.1083 77.6283 95.5226 76.3455 96.5671 75.8289C102.436 72.9228 107.119 69.5228 110.207 65.3168C111.211 63.9488 110.224 62.0189 108.527 62.036L88.3026 62.263C87.4909 62.2744 86.7474 61.8032 86.4125 61.0653L80.6399 48.4473C80.0155 47.0794 81.0088 45.5298 82.5073 45.5298Z" fill="#515151"/>
<path d="M66.4041 19.1585L60.9267 8.2036C60.4102 7.17623 60.8415 5.9218 61.8746 5.42798C88.3594 -7.33195 117.705 3.31079 128.643 27.8714C129.25 29.2336 128.257 30.7775 126.764 30.7775H113.323C112.636 30.7775 112 30.4313 111.614 29.8637C101.125 14.47 86.8495 10.1335 69.2536 20.0326C68.2319 20.6003 66.932 20.2143 66.4041 19.1585Z" fill="#515151"/>
</svg>
