<svg width="52" height="52" viewBox="0 0 52 52" fill="none" xmlns="http://www.w3.org/2000/svg">
<g clip-path="url(#clip0_36_2910)">
<path fill-rule="evenodd" clip-rule="evenodd" d="M3.25 26C3.25 32.0337 5.64687 37.8202 9.91332 42.0867C14.1798 46.3531 19.9663 48.75 26 48.75C32.0337 48.75 37.8202 46.3531 42.0867 42.0867C46.3531 37.8202 48.75 32.0337 48.75 26C48.75 19.9663 46.3531 14.1798 42.0867 9.91332C37.8202 5.64687 32.0337 3.25 26 3.25C19.9663 3.25 14.1798 5.64687 9.91332 9.91332C5.64687 14.1798 3.25 19.9663 3.25 26ZM52 26C52 32.8956 49.2607 39.5088 44.3848 44.3848C39.5088 49.2607 32.8956 52 26 52C19.1044 52 12.4912 49.2607 7.61522 44.3848C2.73928 39.5088 0 32.8956 0 26C0 19.1044 2.73928 12.4912 7.61522 7.61522C12.4912 2.73928 19.1044 0 26 0C32.8956 0 39.5088 2.73928 44.3848 7.61522C49.2607 12.4912 52 19.1044 52 26ZM14.625 24.375C14.194 24.375 13.7807 24.5462 13.476 24.851C13.1712 25.1557 13 25.569 13 26C13 26.431 13.1712 26.8443 13.476 27.149C13.7807 27.4538 14.194 27.625 14.625 27.625H33.4523L26.4745 34.5995C26.3234 34.7506 26.2036 34.93 26.1218 35.1274C26.04 35.3248 25.9979 35.5363 25.9979 35.75C25.9979 35.9637 26.04 36.1752 26.1218 36.3726C26.2036 36.57 26.3234 36.7494 26.4745 36.9005C26.6256 37.0516 26.805 37.1714 27.0024 37.2532C27.1998 37.335 27.4113 37.3771 27.625 37.3771C27.8387 37.3771 28.0502 37.335 28.2476 37.2532C28.445 37.1714 28.6244 37.0516 28.7755 36.9005L38.5255 27.1505C38.6768 26.9996 38.7969 26.8202 38.8788 26.6228C38.9607 26.4254 39.0029 26.2137 39.0029 26C39.0029 25.7863 38.9607 25.5746 38.8788 25.3772C38.7969 25.1798 38.6768 25.0004 38.5255 24.8495L28.7755 15.0995C28.6244 14.9484 28.445 14.8286 28.2476 14.7468C28.0502 14.665 27.8387 14.6229 27.625 14.6229C27.4113 14.6229 27.1998 14.665 27.0024 14.7468C26.805 14.8286 26.6256 14.9484 26.4745 15.0995C26.3234 15.2506 26.2036 15.4299 26.1218 15.6274C26.04 15.8248 25.9979 16.0363 25.9979 16.25C25.9979 16.4637 26.04 16.6752 26.1218 16.8726C26.2036 17.07 26.3234 17.2494 26.4745 17.4005L33.4523 24.375H14.625Z" fill="#15B75A"/>
</g>
<defs>
<clipPath id="clip0_36_2910">
<rect width="52" height="52" fill="white"/>
</clipPath>
</defs>
</svg>
