<svg width="24" height="28" viewBox="0 0 24 28" fill="none" xmlns="http://www.w3.org/2000/svg">
<g clip-path="url(#clip0_22_3085)">
<path d="M12 25.4546C9.21523 25.4546 6.54451 24.2478 4.57538 22.0996C2.60625 19.9515 1.5 17.038 1.5 14C1.5 10.9621 2.60625 8.04858 4.57538 5.90044C6.54451 3.7523 9.21523 2.54548 12 2.54548C14.7848 2.54548 17.4555 3.7523 19.4246 5.90044C21.3938 8.04858 22.5 10.9621 22.5 14C22.5 17.038 21.3938 19.9515 19.4246 22.0996C17.4555 24.2478 14.7848 25.4546 12 25.4546ZM12 27.0909C15.1826 27.0909 18.2348 25.7117 20.4853 23.2567C22.7357 20.8017 24 17.472 24 14C24 10.5281 22.7357 7.19838 20.4853 4.74336C18.2348 2.28834 15.1826 0.909119 12 0.909119C8.8174 0.909119 5.76516 2.28834 3.51472 4.74336C1.26428 7.19838 0 10.5281 0 14C0 17.472 1.26428 20.8017 3.51472 23.2567C5.76516 25.7117 8.8174 27.0909 12 27.0909Z" fill="#15B75A"/>
<path d="M9.4065 9.18093C9.52918 9.11201 9.6669 9.08135 9.80452 9.09233C9.94214 9.1033 10.0743 9.15547 10.1865 9.24311L15.4365 13.334C15.5337 13.4097 15.613 13.5096 15.6676 13.6255C15.7223 13.7413 15.7509 13.8697 15.7509 14C15.7509 14.1303 15.7223 14.2587 15.6676 14.3746C15.613 14.4904 15.5337 14.5903 15.4365 14.666L10.1865 18.7569C10.0743 18.8445 9.94224 18.8966 9.80469 18.9076C9.66715 18.9186 9.52949 18.8879 9.40686 18.8191C9.28422 18.7503 9.18136 18.6459 9.10958 18.5174C9.03781 18.3889 8.99989 18.2414 9 18.0909V9.90911C8.99986 9.7587 9.03772 9.61115 9.10943 9.48269C9.18115 9.35423 9.28393 9.24981 9.4065 9.18093Z" fill="#15B75A"/>
</g>
<defs>
<clipPath id="clip0_22_3085">
<rect width="24" height="26.1818" fill="white" transform="translate(0 0.909119)"/>
</clipPath>
</defs>
</svg>
