<svg width="104" height="104" viewBox="0 0 104 104" fill="none" xmlns="http://www.w3.org/2000/svg">
<circle opacity="0.1" cx="52" cy="52" r="52" fill="#15B75A"/>
<path d="M78.5728 39.6452C78.593 39.2329 78.5268 38.821 78.3784 38.4359C78.23 38.0507 78.0027 37.7009 77.711 37.4089L64.8041 24.5018C64.5122 24.2099 64.1624 23.9824 63.7772 23.834C63.392 23.6855 62.98 23.6195 62.5677 23.64C62.1554 23.6606 61.752 23.7673 61.3835 23.9533C61.015 24.1393 60.6895 24.4005 60.4281 24.7199L49.3565 38.252L33.3358 41.516C32.7808 41.6276 32.2634 41.8785 31.8321 42.2452C31.4008 42.6118 31.07 43.0822 30.8706 43.612L20.7022 70.4201C20.4736 71.0241 20.4241 71.6812 20.5596 72.3126C20.6951 72.944 21.0098 73.5229 21.4661 73.98L28.024 80.538C28.481 80.9943 29.0599 81.3091 29.6912 81.4446C30.3226 81.5801 30.9797 81.5307 31.5837 81.3021L58.4035 71.1292C58.9258 70.9322 59.3903 70.6076 59.7548 70.1849C60.1193 69.7623 60.3721 69.255 60.4902 68.7096L63.9495 52.8658L77.4931 41.7847C77.8123 41.523 78.0732 41.1975 78.2592 40.8291C78.4451 40.4606 78.5519 40.0574 78.5728 39.6452ZM56.7091 67.5584L30.5413 77.4842L28.9235 75.8662L41.1553 63.6344C42.6008 64.4464 44.2902 64.7108 45.9147 64.3795C47.5392 64.0481 48.99 63.143 50.002 61.8297C51.0139 60.5165 51.5193 58.8828 51.4257 57.2275C51.3321 55.5723 50.6457 54.006 49.4921 52.8152C48.3385 51.6245 46.7949 50.8888 45.1434 50.7427C43.4919 50.5966 41.843 51.0499 40.4983 52.0197C39.1536 52.9894 38.203 54.4109 37.8202 56.024C37.4375 57.6371 37.6483 59.3342 38.414 60.8047L26.1378 73.0808L24.5198 71.4628L34.4392 45.3115L49.7926 42.1834L60.0168 52.4075L56.7091 67.5584ZM41.5732 57.6245C41.5732 57.0401 41.7465 56.4689 42.0712 55.983C42.3958 55.4971 42.8572 55.1184 43.3971 54.8948C43.937 54.6712 44.531 54.6127 45.1042 54.7267C45.6773 54.8407 46.2037 55.1221 46.6169 55.5353C47.0301 55.9485 47.3115 56.4749 47.4255 57.0481C47.5395 57.6212 47.481 58.2153 47.2574 58.7551C47.0338 59.295 46.6551 59.7564 46.1692 60.0811C45.6834 60.4057 45.1121 60.579 44.5278 60.579C43.7442 60.579 42.9927 60.2677 42.4386 59.7136C41.8845 59.1596 41.5732 58.4081 41.5732 57.6245ZM62.3032 49.1222L53.0902 39.9095L62.788 28.0569L74.156 39.4248L62.3032 49.1222Z" fill="#15B75A"/>
</svg>
