<svg width="104" height="104" viewBox="0 0 104 104" fill="none" xmlns="http://www.w3.org/2000/svg">
<circle opacity="0.1" cx="52" cy="52.0001" r="52" fill="#15B75A"/>
<path d="M23.8728 48.2503L73.1152 29.6133C73.2928 29.5453 73.4864 29.5303 73.6724 29.5699C73.8584 29.6096 74.0289 29.7022 74.1634 29.8367C74.2979 29.9712 74.3906 30.1418 74.4302 30.3278C74.4699 30.5138 74.4548 30.7073 74.3869 30.885L55.7499 80.1274C55.6757 80.3144 55.5461 80.4742 55.3785 80.5853C55.2108 80.6965 55.0131 80.7536 54.812 80.7491C54.6109 80.7445 54.416 80.6785 54.2536 80.5598C54.0911 80.4412 53.9689 80.2757 53.9033 80.0855L45.6059 59.6388C45.5092 59.3491 45.3464 59.0858 45.1304 58.8698C44.9144 58.6538 44.6511 58.491 44.3613 58.3942L23.9146 50.1043C23.722 50.0402 23.5539 49.9181 23.4333 49.7548C23.3127 49.5915 23.2456 49.395 23.241 49.192C23.2364 48.9891 23.2946 48.7897 23.4077 48.6211C23.5208 48.4525 23.6833 48.323 23.8728 48.2503V48.2503Z" stroke="#15B75A" stroke-width="4" stroke-linecap="round" stroke-linejoin="round"/>
<path d="M73.9622 30.038L45.2784 58.7217" stroke="#15B75A" stroke-width="4" stroke-linecap="round" stroke-linejoin="round"/>
</svg>
