<svg width="104" height="104" viewBox="0 0 104 104" fill="none" xmlns="http://www.w3.org/2000/svg">
<circle opacity="0.1" cx="52" cy="52" r="52" fill="#15B75A"/>
<g clip-path="url(#clip0_22_3560)">
<path d="M67.7575 54.6263C49.3737 46.7475 51.9999 65.1313 36.2424 57.2525M36.2424 23.1111H67.7575M44.1211 23.1111V41.495L25.7373 73.0101V80.8889H78.2626V73.0101L59.8787 41.495V23.1111H44.1211ZM59.8787 67.7576C60.5752 67.7576 61.2432 67.4809 61.7358 66.9884C62.2283 66.4958 62.505 65.8278 62.505 65.1313C62.505 64.4348 62.2283 63.7668 61.7358 63.2743C61.2432 62.7817 60.5752 62.5051 59.8787 62.5051C59.1822 62.5051 58.5142 62.7817 58.0217 63.2743C57.5291 63.7668 57.2525 64.4348 57.2525 65.1313C57.2525 65.8278 57.5291 66.4958 58.0217 66.9884C58.5142 67.4809 59.1822 67.7576 59.8787 67.7576ZM44.1211 73.0101C44.8177 73.0101 45.4857 72.7334 45.9782 72.2409C46.4707 71.7484 46.7474 71.0804 46.7474 70.3838C46.7474 69.6873 46.4707 69.0193 45.9782 68.5268C45.4857 68.0343 44.8177 67.7576 44.1211 67.7576C43.4246 67.7576 42.7566 68.0343 42.2641 68.5268C41.7716 69.0193 41.4949 69.6873 41.4949 70.3838C41.4949 71.0804 41.7716 71.7484 42.2641 72.2409C42.7566 72.7334 43.4246 73.0101 44.1211 73.0101Z" stroke="#15B75A" stroke-width="5"/>
</g>
<defs>
<clipPath id="clip0_22_3560">
<rect width="63.0303" height="63.0303" fill="white" transform="translate(20.4849 20.4849)"/>
</clipPath>
</defs>
</svg>
