<svg width="104" height="104" viewBox="0 0 104 104" fill="none" xmlns="http://www.w3.org/2000/svg">
<circle opacity="0.1" cx="52" cy="51.991" r="52" fill="#15B75A"/>
<path d="M44.1213 73.0011H36.2425C33.4564 73.0011 30.7844 71.8943 28.8143 69.9242C26.8442 67.9541 25.7374 65.2821 25.7374 62.496V38.8597C25.7374 36.0736 26.8442 33.4016 28.8143 31.4315C30.7844 29.4614 33.4564 28.3546 36.2425 28.3546H65.1314C67.9175 28.3546 70.5895 29.4614 72.5596 31.4315C74.5296 33.4016 75.6364 36.0736 75.6364 38.8597V46.7385" stroke="#15B75A" stroke-width="4" stroke-linecap="round" stroke-linejoin="round"/>
<path d="M41.495 25.7284V30.9809" stroke="#15B75A" stroke-width="4" stroke-linecap="round" stroke-linejoin="round"/>
<path d="M59.8788 25.7284V30.9809" stroke="#15B75A" stroke-width="4" stroke-linecap="round" stroke-linejoin="round"/>
<path d="M25.7374 41.4859H75.6364" stroke="#15B75A" stroke-width="4" stroke-linecap="round" stroke-linejoin="round"/>
<path d="M69.0707 61.5585L65.1313 65.4978" stroke="#15B75A" stroke-width="4" stroke-linecap="round" stroke-linejoin="round"/>
<path d="M65.1313 78.2536C72.3835 78.2536 78.2626 72.3745 78.2626 65.1223C78.2626 57.8701 72.3835 51.991 65.1313 51.991C57.8791 51.991 52 57.8701 52 65.1223C52 72.3745 57.8791 78.2536 65.1313 78.2536Z" stroke="#15B75A" stroke-width="4" stroke-linecap="round" stroke-linejoin="round"/>
</svg>
